<svg width="366" height="127" viewBox="0 0 366 127" fill="none" xmlns="http://www.w3.org/2000/svg">
<g clip-path="url(#clip0_1087_14421)">
<mask id="mask0_1087_14421" style="mask-type:luminance" maskUnits="userSpaceOnUse" x="0" y="0" width="366" height="127">
<path d="M366 0H0V127H366V0Z" fill="white"/>
</mask>
<g mask="url(#mask0_1087_14421)">
<path d="M122.291 48.489C122.291 50.2377 122.176 51.6853 121.947 52.832C121.746 54.0647 121.302 55.0393 120.614 55.756C119.926 56.444 119.066 56.96 118.034 57.304C117.031 57.6193 115.54 57.777 113.562 57.777H93.481V69H89.998V40.319H113.777C116.902 40.319 119.095 40.8923 120.356 42.039C121.646 43.1857 122.291 45.3357 122.291 48.489ZM118.679 48.661C118.679 46.683 118.306 45.2927 117.561 44.49C116.816 43.6587 115.44 43.243 113.433 43.243H93.481V54.896H111.455C114.293 54.896 116.199 54.5377 117.174 53.821C118.177 53.1043 118.679 51.3843 118.679 48.661Z" fill="#1E7FBA"/>
<path d="M161.065 48.833C161.065 51.3843 160.692 53.1473 159.947 54.122C159.202 55.0967 157.539 55.7703 154.959 56.143C156.822 56.401 158.213 56.874 159.13 57.562C160.076 58.2213 160.549 59.4397 160.549 61.217V69H157.109V62.636C157.109 60.5433 156.665 59.153 155.776 58.465C154.887 57.7483 153.311 57.39 151.046 57.39H131.481V69H127.998V40.319H151.347C154.787 40.319 157.267 40.8923 158.786 42.039C160.305 43.1857 161.065 45.4503 161.065 48.833ZM157.453 48.618C157.453 46.4107 156.923 44.963 155.862 44.275C154.83 43.587 153.081 43.243 150.616 43.243H131.481V54.509H150.702C153.167 54.509 154.902 54.122 155.905 53.348C156.937 52.574 157.453 50.9973 157.453 48.618Z" fill="#1E7FBA"/>
<path d="M195.518 52.703V55.584H171.481V66.119H196.722V69H167.998V40.319H196.421V43.243H171.481V52.703H195.518Z" fill="#1E7FBA"/>
<path d="M234.291 48.489C234.291 50.2377 234.176 51.6853 233.947 52.832C233.746 54.0647 233.302 55.0393 232.614 55.756C231.926 56.444 231.066 56.96 230.034 57.304C229.031 57.6193 227.54 57.777 225.562 57.777H205.481V69H201.998V40.319H225.777C228.902 40.319 231.095 40.8923 232.356 42.039C233.646 43.1857 234.291 45.3357 234.291 48.489ZM230.679 48.661C230.679 46.683 230.306 45.2927 229.561 44.49C228.816 43.6587 227.44 43.243 225.433 43.243H205.481V54.896H223.455C226.293 54.896 228.199 54.5377 229.174 53.821C230.177 53.1043 230.679 51.3843 230.679 48.661Z" fill="#1E7FBA"/>
<path d="M240.226 69H236.141L253.083 40.319H257.727L274.798 69H270.799L267.058 62.55H243.881L240.226 69ZM245.515 59.669H265.424L255.405 42.856L245.515 59.669Z" fill="#1E7FBA"/>
<path d="M314.065 48.833C314.065 51.3843 313.692 53.1473 312.947 54.122C312.202 55.0967 310.539 55.7703 307.959 56.143C309.822 56.401 311.213 56.874 312.13 57.562C313.076 58.2213 313.549 59.4397 313.549 61.217V69H310.109V62.636C310.109 60.5433 309.665 59.153 308.776 58.465C307.887 57.7483 306.311 57.39 304.046 57.39H284.481V69H280.998V40.319H304.347C307.787 40.319 310.267 40.8923 311.786 42.039C313.305 43.1857 314.065 45.4503 314.065 48.833ZM310.453 48.618C310.453 46.4107 309.923 44.963 308.862 44.275C307.83 43.587 306.081 43.243 303.616 43.243H284.481V54.509H303.702C306.167 54.509 307.902 54.122 308.905 53.348C309.937 52.574 310.453 50.9973 310.453 48.618Z" fill="#1E7FBA"/>
<path d="M348.518 52.703V55.584H324.481V66.119H349.722V69H320.998V40.319H349.421V43.243H324.481V52.703H348.518Z" fill="#1E7FBA"/>
<path d="M117.518 94.703V97.584H93.481V108.119H118.722V111H89.998V82.319H118.421V85.243H93.481V94.703H117.518Z" fill="#21DB94"/>
<path d="M160.991 82.319L146.801 95.735L162.711 111H157.465L143.533 97.455L129.644 111H124.398L140.308 95.735L126.032 82.319H131.106L143.533 94.058L155.831 82.319H160.991Z" fill="#21DB94"/>
<path d="M180.147 111V85.243H165.699V82.319H198.164V85.243H183.63V111H180.147Z" fill="#21DB94"/>
<path d="M235.065 90.833C235.065 93.3843 234.692 95.1473 233.947 96.122C233.202 97.0967 231.539 97.7703 228.959 98.143C230.822 98.401 232.213 98.874 233.13 99.562C234.076 100.221 234.549 101.44 234.549 103.217V111H231.109V104.636C231.109 102.543 230.665 101.153 229.776 100.465C228.887 99.7483 227.311 99.39 225.046 99.39H205.481V111H201.998V82.319H225.347C228.787 82.319 231.267 82.8923 232.786 84.039C234.305 85.1857 235.065 87.4503 235.065 90.833ZM231.453 90.618C231.453 88.4107 230.923 86.963 229.862 86.275C228.83 85.587 227.081 85.243 224.616 85.243H205.481V96.509H224.702C227.167 96.509 228.902 96.122 229.905 95.348C230.937 94.574 231.453 92.9973 231.453 90.618Z" fill="#21DB94"/>
<path d="M241.226 111H237.141L254.083 82.319H258.727L275.798 111H271.799L268.058 104.55H244.881L241.226 111ZM246.515 101.669H266.424L256.405 84.856L246.515 101.669Z" fill="#21DB94"/>
<path d="M304.907 111.172L297.511 111.301L294.329 111.344L287.965 111.043C282.862 110.527 280.311 107.789 280.311 102.83L280.139 97.369L280.182 92.51C280.182 92.0227 280.239 91.435 280.354 90.747C280.468 90.0303 280.626 89.1417 280.827 88.081C281.171 86.2177 282.074 84.7987 283.536 83.824C284.998 82.8207 286.99 82.319 289.513 82.319L292.738 82.104L296.35 82.061H297.382L301.51 82.018L305.552 82.147C306.498 82.147 307.816 82.3333 309.508 82.706C311.228 83.0787 312.417 84.0103 313.077 85.501C313.765 86.9917 314.109 88.984 314.109 91.478H310.669V91.22C310.669 89.9587 310.583 88.9123 310.411 88.081C310.267 87.221 309.923 86.619 309.379 86.275C308.834 85.931 307.73 85.63 306.068 85.372C305.265 85.286 304.333 85.2143 303.273 85.157C302.212 85.0997 300.965 85.071 299.532 85.071L294.845 85.2L290.115 85.329C288.939 85.329 287.95 85.458 287.148 85.716C286.374 85.9453 285.786 86.2607 285.385 86.662C284.697 87.2927 284.281 88.2387 284.138 89.5C284.023 90.7327 283.937 91.736 283.88 92.51C283.822 93.284 283.794 94.015 283.794 94.703L283.751 98.573C283.751 102.185 284.109 104.693 284.826 106.098C285.571 107.474 287.52 108.162 290.674 108.162L297.382 108.248L303.789 108.162C306.397 108.162 308.218 107.861 309.25 107.259C310.31 106.628 310.841 105.095 310.841 102.658V101.497H314.453C314.453 105.252 313.879 107.804 312.733 109.151C311.615 110.498 309.006 111.172 304.907 111.172Z" fill="#21DB94"/>
<path d="M334.147 111V85.243H319.699V82.319H352.164V85.243H337.63V111H334.147Z" fill="#21DB94"/>
<path d="M6.21628 27.2667C6.08468 27.2992 5.97043 27.3807 5.89687 27.4947C5.8233 27.6087 5.79596 27.7465 5.82042 27.8799C5.84489 28.0134 5.91931 28.1325 6.02851 28.2129C6.1377 28.2933 6.27343 28.3289 6.40799 28.3125C28.0454 25.8585 45.7731 30.303 51.9251 40.8849C53.7044 44.0593 54.8006 47.5712 55.1432 51.1951C56.3021 63.4224 48.3235 73.243 42.8803 79.7384C26.8412 98.8643 10.4253 115.823 0.163414 126.079C0.0669253 126.172 0.00891511 126.298 0.000945205 126.432C-0.0070247 126.565 0.035631 126.697 0.120411 126.801C0.205191 126.904 0.325869 126.972 0.458393 126.991C0.590918 127.009 0.725557 126.977 0.835476 126.901C13.7597 118.148 48.8836 93.5679 63.3329 75.3844C66.197 72.4094 68.6481 69.0619 70.62 65.4322C72.0611 62.5468 75.8759 54.9172 74.0406 46.4141C72.4668 40.4473 68.8925 35.2031 63.9166 31.5602C49.7581 19.7815 21.7555 23.7947 6.21628 27.2667Z" fill="#21DB94"/>
<path d="M97.5259 15.9343C97.3545 18.5622 96.4972 21.0991 95.0397 23.2913C93.5821 25.4836 91.5753 27.2544 89.2199 28.4268C86.8787 29.6092 84.2656 30.1472 81.6484 29.986C77.7598 29.7477 74.1167 28.0031 71.4908 25.1219C68.8649 22.2407 67.4627 18.4492 67.5812 14.5507C67.6996 10.6522 69.3295 6.95305 72.1254 4.23695C74.9214 1.52085 78.6637 0.00121016 82.5596 0C82.8633 0 83.167 0.0172519 83.4901 0.0345038C87.4549 0.285337 91.1586 2.09954 93.7895 5.07951C96.4205 8.05948 97.7641 11.9643 97.5259 15.9343Z" fill="#21DB94"/>
</g>
</g>
<defs>
<clipPath id="clip0_1087_14421">
<rect width="366" height="127" fill="white"/>
</clipPath>
</defs>
</svg>
